<?xml version="1.0" encoding="UTF-8"?>
<svg id="Layer_1" xmlns="http://www.w3.org/2000/svg" width="7.8cm" height="4.4cm" version="1.1" viewBox="0 0 222 125">
  <!-- Generator: Adobe Illustrator 29.1.0, SVG Export Plug-In . SVG Version: 2.1.0 Build 142)  -->
  <defs>
    <style>
      .st0 {
        fill: #47872f;
      }

      .st1 {
        fill: #860102;
      }

      .st2 {
        fill: #231f20;
      }
    </style>
  </defs>
  <g>
    <g>
      <text/>
      <g>
        <path class="st1" d="M65.5,92c.5-.4.7-1,.7-1.8,0-2.9-.8-5.3-2.5-7.3-1.8-2.3-4.1-3.4-7-3.4s-5.5,1.1-7.4,3.4c-1.7,2.1-2.5,4.7-2.5,7.8s.8,5.7,2.3,7.7c1.8,2.3,4.4,3.5,7.7,3.5s3.1-.3,4.8-1c1.6-.7,2.7-1.5,3.4-2.3.3-.3.5-.6.6-1,.2-.3.2-.6.2-.9,0-.6-.2-1-.6-1.4-.5-.4-1-.5-1.4-.5-.8.5-1.9,1.2-3.4,2.1-1,.5-2.2.8-3.5.8-1.7,0-3-.5-4.1-1.6-.9-1-1.4-2.2-1.4-3.5h11.8c1.3,0,2-.2,2.3-.5ZM51.4,88.8c0-1.4.4-2.6,1.2-3.4,1-1.2,2.3-1.8,4.1-1.8s2.7.6,3.6,1.8c.8,1,1.2,2.1,1.2,3.3h-10.1Z"/>
        <path class="st1" d="M78.4,80.1c-.7-.4-1.4-.6-2.1-.6-1,0-1.9.5-2.9,1.4,0,0-.2.2-.3.3,0,0-.1.1-.2.2v.4c0-.8-.2-1.4-.6-1.8-.4-.4-1-.7-1.7-.7-1.5,0-2.3.8-2.3,2.4v17.5c0,.8.2,1.4.6,1.7.4.5.9.7,1.7.7,1.5,0,2.3-.8,2.3-2.4v-9.9c0-1.8.4-3.1,1.1-4,.7-.7,1.6-1.2,2.9-1.3.8,0,1.5-.2,2-.6.5-.5.7-1.1.7-1.8s-.4-1.3-1.2-1.7Z"/>
        <path class="st1" d="M85.5,73.3c-.5-.5-1.1-.8-1.9-.8s-1.5.3-2,.9c-.5.5-.7,1.1-.7,1.8s.2,1.4.7,2c.6.5,1.2.7,2,.7s1.4-.2,1.9-.7c.5-.4.8-1.1.8-2,0-.8-.3-1.5-.8-1.9Z"/>
        <path class="st1" d="M83.6,79.5c-1.5,0-2.3.8-2.3,2.4v17.5c0,.8.2,1.4.6,1.7.3.5.9.7,1.7.7,1.5,0,2.3-.8,2.3-2.4v-17.5c0-.8-.2-1.4-.6-1.8-.4-.4-1-.7-1.7-.7Z"/>
        <path class="st1" d="M115.4,81.4c-1.3-1.2-3.1-1.9-5.2-1.9-1.1,0-2.3.2-3.4.7-.6.2-1.2.5-1.7,1v-25.1c0-.8-.2-1.4-.6-1.8-.5-.4-1-.6-1.7-.6-1.5,0-2.3.8-2.3,2.4v43.4c0,.8.2,1.4.6,1.7.4.5.9.7,1.7.7,1.5,0,2.3-.8,2.3-2.4v-11.3c0-1.2.5-2.2,1.4-3.2.9-.9,1.8-1.3,2.8-1.3,1.1,0,2.1.3,2.9,1,.9.8,1.3,2,1.3,3.5v11.3c0,.8.2,1.4.6,1.7.3.5.9.7,1.6.7,1.6,0,2.4-.8,2.4-2.4v-11.5c0-2.8-.9-5-2.7-6.6Z"/>
        <path class="st1" d="M41.8,81.4c-1.3-1.2-3.1-1.9-5.2-1.9-1.1,0-2.2.2-3.4.7-.6.2-1.2.5-1.7,1v-33.3c0-.8-.2-1.4-.6-1.8-.5-.4-1-.6-1.7-.6-1.5,0-2.3.8-2.3,2.4v51.6c0,.8.2,1.4.6,1.7.4.5.9.7,1.7.7,1.5,0,2.3-.8,2.3-2.4v-11.3c0-1.2.5-2.2,1.4-3.2.9-.9,1.8-1.3,2.8-1.3,1.1,0,2.1.3,2.9,1,.9.8,1.3,2,1.3,3.5v11.3c0,.8.2,1.4.6,1.7.3.5.9.7,1.6.7,1.6,0,2.4-.8,2.4-2.4v-11.5c0-2.8-.9-5-2.7-6.6Z"/>
        <path class="st1" d="M138.9,92c.5-.4.7-1,.7-1.8,0-2.9-.8-5.3-2.5-7.3-1.8-2.3-4.1-3.4-7-3.4-3,0-5.5,1.1-7.4,3.4-1.7,2.1-2.5,4.7-2.5,7.8,0,3.1.8,5.7,2.3,7.7,1.8,2.3,4.4,3.5,7.7,3.5,1.5,0,3.1-.3,4.8-1,1.6-.7,2.7-1.5,3.4-2.3.3-.3.5-.6.6-1,.2-.3.2-.6.2-.9,0-.6-.2-1-.6-1.4-.5-.4-1-.5-1.4-.5-.8.5-1.9,1.2-3.4,2.1-1,.5-2.2.8-3.5.8s-3-.5-4.1-1.6c-.9-1-1.4-2.2-1.4-3.5h11.8c1.3,0,2-.2,2.3-.5ZM124.8,88.8c0-1.4.4-2.6,1.2-3.4,1-1.2,2.3-1.8,4.1-1.8,1.5,0,2.7.6,3.6,1.8.8,1,1.2,2.1,1.2,3.3h-10.1Z"/>
        <path class="st1" d="M145.9,73.3c-.5-.5-1.1-.8-1.9-.8s-1.5.3-2,.9c-.5.5-.7,1.1-.7,1.8s.2,1.4.7,2c.6.5,1.2.7,2,.7s1.4-.2,1.9-.7c.5-.4.8-1.1.8-2s-.3-1.5-.8-1.9Z"/>
        <path class="st1" d="M143.9,79.5c-1.5,0-2.3.8-2.3,2.4v17.5c0,.8.2,1.4.6,1.7.4.5.9.7,1.7.7,1.5,0,2.3-.8,2.3-2.4v-17.5c0-.8-.2-1.4-.6-1.8-.4-.4-1-.7-1.7-.7Z"/>
        <path class="st1" d="M166.7,80.1c-.3-.4-.8-.6-1.4-.6s-1.2.2-1.7.6c-.5.3-.8.8-.8,1.7v-.6c-.4-.3-.9-.6-1.5-.8-1.1-.6-2.2-.9-3.3-.9-2.9,0-5.3,1.1-7.2,3.4-1.6,2.2-2.4,4.8-2.4,7.8,0,3,.8,5.5,2.4,7.7,1.9,2.3,4.3,3.5,7.2,3.5,1.1,0,2.2-.3,3.3-.9.5-.2,1-.4,1.4-.8,0,1.5-.4,2.7-1.1,3.6-.9,1.1-2.2,1.7-3.9,1.7-1.3,0-2.6-.4-3.9-1.1-1.4-.9-2.4-1.3-2.9-1.3s-1.1.2-1.5.7c-.3.5-.4,1-.4,1.4,0,1,1,2.1,2.9,3.1,1.8.9,3.7,1.3,5.6,1.3,3.1,0,5.5-.9,7.2-2.6,1.8-1.8,2.7-4.2,2.7-7.5v-17.9c0-.8-.3-1.3-.8-1.7ZM162,95.5c-.9,1.5-2.2,2.2-3.9,2.2s-3-.7-3.9-2.2c-.8-1.2-1.2-2.8-1.2-4.8,0-1.9.4-3.5,1.2-4.8.9-1.5,2.2-2.3,3.9-2.3s3,.8,3.9,2.3c.8,1.2,1.1,2.8,1.1,4.8s-.4,3.5-1.2,4.8Z"/>
        <path class="st1" d="M186.1,81.4c-1.3-1.2-3.1-1.9-5.2-1.9-1.1,0-2.2.2-3.4.7-.6.2-1.1.5-1.7,1v-25.1c0-.8-.2-1.4-.6-1.8-.5-.4-1-.6-1.7-.6-1.5,0-2.3.8-2.3,2.4v43.4c0,.8.2,1.4.6,1.7.3.5.9.7,1.7.7,1.5,0,2.3-.8,2.3-2.4v-11.3c0-1.2.5-2.2,1.4-3.2.9-.9,1.8-1.3,2.8-1.3,1.1,0,2.1.3,2.9,1,.9.8,1.3,2,1.3,3.5v11.3c0,.8.2,1.4.6,1.7.4.5.9.7,1.6.7,1.6,0,2.4-.8,2.4-2.4v-11.5c0-2.8-.9-5-2.7-6.6Z"/>
        <path class="st1" d="M198.6,79.7h-.8v-3.8c0-.7-.2-1.3-.7-1.8-.4-.5-1-.7-1.7-.7-1.5,0-2.3.8-2.3,2.5v3.8h-.8c-1.6,0-2.3.7-2.3,2.1s.8,2.1,2.3,2.1h.8v15.6c0,.8.2,1.4.7,1.7.4.5.9.7,1.6.7,1.6,0,2.4-.8,2.4-2.4v-15.6h.8c1.6,0,2.3-.7,2.3-2.1s-.8-2.1-2.3-2.1Z"/>
        <path class="st1" d="M217.5,93.1c-.3-.7-.6-1.3-1.1-1.9-.9-.8-2.4-1.6-4.6-2.5-3.2-1.1-4.8-2.2-4.8-3s.2-1.1.7-1.5c.5-.3,1.3-.5,2.3-.5s1.8.2,2.5.6c1.8,1,2.7,1.4,2.9,1.4.7,0,1.3-.2,1.6-.5.4-.4.6-.9.6-1.5,0-1.2-.9-2.3-2.7-3.1-1.6-.8-3.2-1.2-4.8-1.2-1.7,0-3.2.4-4.6,1.3-1.5.9-2.4,2.1-2.8,3.6,0,0,0,0,0,.1,0,.2-.1.3-.1.3v.8c0,1.7.7,3.1,2,4.2.4.4,2.4,1.3,6,3,2,.9,3.1,1.8,3.1,2.7,0,.6-.3,1.1-.9,1.5-.6.4-1.5.7-2.5.7-1.2,0-2.5-.4-3.7-1.1-1.5-.9-2.4-1.4-2.8-1.4s-1,.5-1.4,1.5c-.3.2-.5.4-.5.7,0,1.2.8,2.3,2.5,3.2,1.7.9,3.6,1.4,5.8,1.4s2.5-.2,3.5-.7c1.1-.3,2-.9,2.8-1.7,1.1-1.1,1.7-2.5,1.7-4.4s-.1-1.4-.4-2.1Z"/>
      </g>
      <g>
        <path class="st0" d="M15.5,25.3s-5.2,10.1,3.8,17.4l3.3,1.3s7.1-9.7-7.1-18.7Z"/>
        <path class="st0" d="M4.9,36.4s1.1,8,9.3,8.5l2.4-.6s.2-8.5-11.7-7.9Z"/>
        <path class="st0" d="M14.3,24.2l1.8.5s3.1-5.4-4.7-9.3c0,0-2.1,5.5,2.9,8.8Z"/>
        <path class="st0" d="M22.3,26.9s12.9-6.8,2.2-24.2c0,0-11.1,8.3-5.2,21.1l2.9,3.2Z"/>
        <path class="st0" d="M34.7,22.9s-10.6,4.1-8.8,15.5l1.6,3.2s11.7-2.5,7.2-18.6Z"/>
        <path class="st0" d="M36.3,34.9l.4,1.9s6.7.3,6.4-9.1c0,0-6.3.8-6.9,7.2Z"/>
        <path class="st0" d="M29.2,22.9s6.7.3,6.4-9.1c0,0-6.3.8-6.9,7.2l.4,1.9Z"/>
        <path class="st0" d="M10.1,33.4l1.9.5s3.2-5.9-5.3-9.8c0,0-2.1,6,3.4,9.4Z"/>
        <path class="st0" d="M30.8,43.5l-.2,2s6.3,2.3,9-6.7c0,0-6.2-1.2-8.8,4.7Z"/>
        <path class="st0" d="M22.9,46c-1.8.3-1.6,3.1-1.6,3.1.9,34.9-4.9,48.8-4.9,48.8-1.2,3.3.7,3.4.7,3.4,1.4.8,2.5-1.1,2.5-1.1,5.1-11.1,5.5-51.2,5.5-51.2-.4-3.2-2.2-3-2.2-3Z"/>
        <g>
          <polygon class="st0" points="69 117.4 64.4 109.6 61.7 109.6 61.7 121.2 63.8 121.2 63.8 113.1 68.7 121.2 71.2 121.2 71.2 109.6 69 109.6 69 117.4"/>
          <path class="st0" d="M80.8,118.9v-3.6c0,0,0,0,0,0,0-.4,0-.8-.3-1.3-.5-1-1.9-1.3-3-1.3s-2,0-2.7.9c-.5.6-.6,1.2-.6,1.6v.5c0,0,2.2,0,2.2,0v-.4c0-.4.2-.9,1.1-.9.4,0,.8.1,1,.3.1.2.2.4.2,1-.2,0-.4,0-.6,0-1.2,0-2.1.2-2.8.5-1.3.8-1.5,1.9-1.5,2.5,0,1.6,1.2,2.6,3,2.6s1.2,0,2-.7c0,0,0,.1,0,.2v.3c0,0,2.1,0,2.1,0v-.5c-.2-.8-.2-1.8-.2-1.8ZM77.2,119.5c-1.1,0-1.1-.7-1.1-.9,0-.7.8-1.1,2.3-1.1s.3,0,.4,0c0,.7,0,1-.3,1.4-.3.4-.7.6-1.3.6Z"/>
          <rect class="st0" x="83.6" y="109.6" width="2.5" height="2.3"/>
          <rect class="st0" x="83.7" y="112.9" width="2.2" height="8.3"/>
          <path class="st0" d="M92.6,112.9h0c-.5,0-1,.3-1.4.6v-.5s-2.3,0-2.3,0v.4c0,.5.1,1,.1,1.5v6.4s2.2,0,2.2,0v-4.4c0-1.4.4-1.9,1.6-1.9.1,0,.3,0,.4,0,0,0,.1,0,.2,0l.6.2v-2.4s-.4,0-.4,0c-.3,0-.6,0-1.1,0Z"/>
          <path class="st0" d="M99.6,112.7c-3.1,0-4.2,2.3-4.2,4.4s1.6,4.3,4.1,4.3c2.5,0,4.2-1.7,4.2-4.4s-1.1-4.3-4.1-4.3ZM101.3,117c0,2.4-1.4,2.6-1.9,2.6-1.7,0-1.8-2-1.8-2.6,0-2.4,1.6-2.5,1.9-2.5,1.1,0,1.8.9,1.8,2.4Z"/>
          <path class="st0" d="M110.4,112.7c-.8,0-1.5.2-2,.6v-3.7s-2.2,0-2.2,0v9.8s0,1.8,0,1.8h2.2s0-.5,0-.5c0,0,0,0,.1,0,.5.4,1.2.5,1.9.5,1.2,0,2.3-.5,2.9-1.4.5-.7.8-1.7.8-3s-.5-2.6-1-3.1c-.6-.7-1.5-1.1-2.7-1.1ZM110.1,114.4c1.5,0,1.7,1.6,1.7,2.5s-.2,2.5-1.8,2.5-1.7-.8-1.7-2.4c0-1.2.3-2.6,1.7-2.6Z"/>
          <rect class="st0" x="116.4" y="112.9" width="2.2" height="8.3"/>
          <rect class="st0" x="116.2" y="109.6" width="2.5" height="2.3"/>
        </g>
      </g>
    </g>
    <g>
      <path class="st2" d="M128.1,116.6c.2-.2.3-.4.5-.5.2-.1.5-.2.7-.2.5,0,.9.2,1.2.5.3.3.4.8.4,1.5v2.8h-1.3v-2.8c0-.4,0-.6-.2-.8-.1-.2-.3-.2-.6-.2s-.3,0-.5,0c-.1,0-.2.2-.3.3v3.5h-1.3v-6.8h1.3v2.7Z"/>
      <path class="st2" d="M133.2,118.3c0-.7.2-1.3.6-1.7.4-.5.9-.7,1.6-.7s1.2.2,1.6.7.6,1,.6,1.7h0c0,.8-.2,1.4-.6,1.8s-.9.7-1.6.7c-.7,0-1.2-.2-1.6-.7s-.6-1-.6-1.7h0ZM134.5,118.4c0,.4,0,.8.2,1,.2.3.4.4.7.4s.6-.1.7-.4c.2-.3.2-.6.2-1h0c0-.5,0-.9-.2-1.1-.2-.3-.4-.4-.7-.4s-.6.1-.7.4-.2.6-.2,1h0Z"/>
      <path class="st2" d="M141.5,114.8v1.2s.8,0,.8,0v.9h-.8s0,2.4,0,2.4c0,.2,0,.3.1.4,0,0,.2.1.3.1s.1,0,.2,0,.1,0,.2,0v.9s-.1,0-.3,0-.3,0-.4,0c-.4,0-.8-.1-1-.4-.2-.2-.4-.6-.4-1.1v-2.4s-.7,0-.7,0v-.9h.7s0-1.2,0-1.2h1.3Z"/>
      <path class="st2" d="M146.7,120.8c-.7,0-1.2-.2-1.6-.7-.4-.4-.6-1-.6-1.7v-.2c0-.7.2-1.3.6-1.7.4-.5.9-.7,1.6-.7s1.1.2,1.5.6.5.9.5,1.6v.7h-2.8s0,0,0,0c0,.3.1.6.3.8s.4.3.8.3.5,0,.7,0c.2,0,.4-.1.6-.3l.3.8c-.2.2-.4.3-.8.4-.3.1-.7.2-1,.2ZM146.6,116.9c-.2,0-.4,0-.6.3-.1.2-.2.4-.3.7h0s1.6,0,1.6,0h0c0-.4,0-.6-.2-.8-.1-.2-.3-.2-.6-.2Z"/>
      <path class="st2" d="M152.3,120.7h-1.3v-6.8h1.3v6.8Z"/>
      <path class="st2" d="M161.4,120.7c0-.1,0-.2-.1-.3,0-.1,0-.2,0-.4-.1.2-.3.4-.5.6-.2.2-.5.2-.8.2-.5,0-.9-.1-1.1-.4-.3-.3-.4-.6-.4-1s.2-.8.5-1.1.9-.4,1.6-.4h.7s0-.4,0-.4c0-.2,0-.4-.2-.5-.1-.1-.3-.2-.5-.2s-.4,0-.5.2-.2.2-.2.4h-1.2s0,0,0,0c0-.4.2-.7.5-1s.8-.4,1.4-.4,1,.1,1.4.4c.3.3.5.7.5,1.2v2c0,.2,0,.4,0,.6,0,.2,0,.4.2.6h-1.3ZM160.2,119.9c.2,0,.4,0,.6-.2.2-.1.3-.2.4-.4v-.7s-.7,0-.7,0c-.3,0-.5,0-.6.2-.1.1-.2.3-.2.5s0,.3.2.4.2.1.4.1Z"/>
      <path class="st2" d="M169.2,118.5c0,.7-.2,1.3-.5,1.7-.3.4-.8.6-1.4.6s-.5,0-.7-.1-.4-.2-.5-.4v2.3h-1.3v-6.5h1.1s0,.6,0,.6c.1-.2.3-.4.5-.5.2-.1.4-.2.7-.2.6,0,1,.2,1.4.7.3.5.5,1.1.5,1.8h0ZM167.9,118.4c0-.4,0-.8-.2-1.1-.1-.3-.4-.4-.7-.4s-.4,0-.5.1c-.1,0-.2.2-.3.3v2.1c0,.1.2.2.3.3.1,0,.3.1.5.1.3,0,.5-.1.7-.4s.2-.6.2-1h0Z"/>
      <path class="st2" d="M174.3,120.7c0-.1,0-.2-.1-.3,0-.1,0-.2,0-.4-.1.2-.3.4-.5.6-.2.2-.5.2-.8.2-.5,0-.9-.1-1.1-.4-.3-.3-.4-.6-.4-1s.2-.8.5-1.1.9-.4,1.6-.4h.7s0-.4,0-.4c0-.2,0-.4-.2-.5-.1-.1-.3-.2-.5-.2s-.4,0-.5.2-.2.2-.2.4h-1.2s0,0,0,0c0-.4.2-.7.5-1s.8-.4,1.4-.4,1,.1,1.4.4c.3.3.5.7.5,1.2v2c0,.2,0,.4,0,.6,0,.2,0,.4.2.6h-1.3ZM173.1,119.9c.2,0,.4,0,.6-.2.2-.1.3-.2.4-.4v-.7s-.7,0-.7,0c-.3,0-.5,0-.6.2-.1.1-.2.3-.2.5s0,.3.2.4.2.1.4.1Z"/>
      <path class="st2" d="M180.4,117.1h-.5c-.2,0-.3,0-.5.1-.1,0-.2.2-.3.3v3.2h-1.3v-4.7h1.2s0,.7,0,.7c.1-.2.3-.4.4-.6.2-.1.4-.2.6-.2s.1,0,.2,0c0,0,.1,0,.2,0v1.1Z"/>
      <path class="st2" d="M184.2,114.8v1.2s.8,0,.8,0v.9h-.8s0,2.4,0,2.4c0,.2,0,.3.1.4,0,0,.2.1.3.1s.1,0,.2,0,.1,0,.2,0v.9s-.1,0-.3,0-.3,0-.4,0c-.4,0-.8-.1-1-.4-.2-.2-.4-.6-.4-1.1v-2.4s-.7,0-.7,0v-.9h.7s0-1.2,0-1.2h1.3Z"/>
      <path class="st2" d="M188.5,116v.6c.2-.2.4-.4.6-.5.2-.1.5-.2.8-.2s.6,0,.8.2c.2.1.4.3.5.6.1-.3.3-.5.6-.6.2-.1.5-.2.8-.2.5,0,.8.2,1.1.5s.4.8.4,1.5v2.9h-1.3v-2.9c0-.4,0-.6-.2-.7s-.3-.2-.5-.2-.3,0-.5.1-.2.2-.3.3c0,0,0,.1,0,.1,0,0,0,0,0,.1v3.1h-1.3v-2.9c0-.3,0-.6-.2-.7-.1-.1-.3-.2-.5-.2s-.3,0-.5,0-.2.2-.3.3v3.5h-1.3v-4.7h1.2Z"/>
      <path class="st2" d="M198.7,120.8c-.7,0-1.2-.2-1.6-.7-.4-.4-.6-1-.6-1.7v-.2c0-.7.2-1.3.6-1.7.4-.5.9-.7,1.6-.7s1.1.2,1.5.6.5.9.5,1.6v.7h-2.8s0,0,0,0c0,.3.1.6.3.8s.4.3.8.3.5,0,.7,0c.2,0,.4-.1.6-.3l.3.8c-.2.2-.4.3-.8.4-.3.1-.7.2-1,.2ZM198.6,116.9c-.2,0-.4,0-.6.3-.1.2-.2.4-.3.7h0s1.6,0,1.6,0h0c0-.4,0-.6-.2-.8-.1-.2-.3-.2-.6-.2Z"/>
      <path class="st2" d="M204,116v.7c.2-.2.4-.4.6-.6s.5-.2.8-.2c.5,0,.8.2,1.1.5.3.3.4.8.4,1.4v3h-1.3v-3c0-.3,0-.5-.2-.7-.1-.1-.3-.2-.6-.2s-.3,0-.5.1c-.1,0-.2.2-.3.3v3.4h-1.3v-4.7h1.2Z"/>
      <path class="st2" d="M211,114.8v1.2s.8,0,.8,0v.9h-.8s0,2.4,0,2.4c0,.2,0,.3.1.4,0,0,.2.1.3.1s.1,0,.2,0,.1,0,.2,0v.9s-.1,0-.3,0-.3,0-.4,0c-.4,0-.8-.1-1-.4-.2-.2-.4-.6-.4-1.1v-2.4s-.7,0-.7,0v-.9h.7s0-1.2,0-1.2h1.3Z"/>
      <path class="st2" d="M216.7,119.4c0-.1,0-.3-.2-.4s-.4-.2-.8-.3c-.6-.1-1-.3-1.3-.5-.3-.2-.4-.5-.4-.9s.2-.8.5-1c.3-.3.8-.4,1.4-.4s1.1.1,1.4.4c.4.3.5.6.5,1.1h0s-1.2,0-1.2,0c0-.2,0-.3-.2-.5-.1-.1-.3-.2-.5-.2s-.4,0-.5.2c-.1.1-.2.2-.2.4s0,.3.2.4c.1,0,.4.2.8.2.6.1,1,.3,1.3.5.3.2.4.5.4.9s-.2.8-.5,1-.8.4-1.4.4-1.1-.2-1.5-.5c-.4-.3-.5-.7-.5-1.1h0s1.2,0,1.2,0c0,.3,0,.4.3.6.2.1.4.2.6.2s.4,0,.5-.1c.1,0,.2-.2.2-.4Z"/>
    </g>
  </g>
  <g>
    <g>
      <text/>
      <g>
        <path class="st1" d="M65.5,92c.5-.4.7-1,.7-1.8,0-2.9-.8-5.3-2.5-7.3-1.8-2.3-4.1-3.4-7-3.4s-5.5,1.1-7.4,3.4c-1.7,2.1-2.5,4.7-2.5,7.8s.8,5.7,2.3,7.7c1.8,2.3,4.4,3.5,7.7,3.5s3.1-.3,4.8-1c1.6-.7,2.7-1.5,3.4-2.3.3-.3.5-.6.6-1,.2-.3.2-.6.2-.9,0-.6-.2-1-.6-1.4-.5-.4-1-.5-1.4-.5-.8.5-1.9,1.2-3.4,2.1-1,.5-2.2.8-3.5.8-1.7,0-3-.5-4.1-1.6-.9-1-1.4-2.2-1.4-3.5h11.8c1.3,0,2-.2,2.3-.5ZM51.4,88.8c0-1.4.4-2.6,1.2-3.4,1-1.2,2.3-1.8,4.1-1.8s2.7.6,3.6,1.8c.8,1,1.2,2.1,1.2,3.3h-10.1Z"/>
        <path class="st1" d="M78.4,80.1c-.7-.4-1.4-.6-2.1-.6-1,0-1.9.5-2.9,1.4,0,0-.2.2-.3.3,0,0-.1.1-.2.2v.4c0-.8-.2-1.4-.6-1.8-.4-.4-1-.7-1.7-.7-1.5,0-2.3.8-2.3,2.4v17.5c0,.8.2,1.4.6,1.7.4.5.9.7,1.7.7,1.5,0,2.3-.8,2.3-2.4v-9.9c0-1.8.4-3.1,1.1-4,.7-.7,1.6-1.2,2.9-1.3.8,0,1.5-.2,2-.6.5-.5.7-1.1.7-1.8s-.4-1.3-1.2-1.7Z"/>
        <path class="st1" d="M85.5,73.3c-.5-.5-1.1-.8-1.9-.8s-1.5.3-2,.9c-.5.5-.7,1.1-.7,1.8s.2,1.4.7,2c.6.5,1.2.7,2,.7s1.4-.2,1.9-.7c.5-.4.8-1.1.8-2,0-.8-.3-1.5-.8-1.9Z"/>
        <path class="st1" d="M83.6,79.5c-1.5,0-2.3.8-2.3,2.4v17.5c0,.8.2,1.4.6,1.7.3.5.9.7,1.7.7,1.5,0,2.3-.8,2.3-2.4v-17.5c0-.8-.2-1.4-.6-1.8-.4-.4-1-.7-1.7-.7Z"/>
        <path class="st1" d="M115.4,81.4c-1.3-1.2-3.1-1.9-5.2-1.9-1.1,0-2.3.2-3.4.7-.6.2-1.2.5-1.7,1v-25.1c0-.8-.2-1.4-.6-1.8-.5-.4-1-.6-1.7-.6-1.5,0-2.3.8-2.3,2.4v43.4c0,.8.2,1.4.6,1.7.4.5.9.7,1.7.7,1.5,0,2.3-.8,2.3-2.4v-11.3c0-1.2.5-2.2,1.4-3.2.9-.9,1.8-1.3,2.8-1.3,1.1,0,2.1.3,2.9,1,.9.8,1.3,2,1.3,3.5v11.3c0,.8.2,1.4.6,1.7.3.5.9.7,1.6.7,1.6,0,2.4-.8,2.4-2.4v-11.5c0-2.8-.9-5-2.7-6.6Z"/>
        <path class="st1" d="M41.8,81.4c-1.3-1.2-3.1-1.9-5.2-1.9-1.1,0-2.2.2-3.4.7-.6.2-1.2.5-1.7,1v-33.3c0-.8-.2-1.4-.6-1.8-.5-.4-1-.6-1.7-.6-1.5,0-2.3.8-2.3,2.4v51.6c0,.8.2,1.4.6,1.7.4.5.9.7,1.7.7,1.5,0,2.3-.8,2.3-2.4v-11.3c0-1.2.5-2.2,1.4-3.2.9-.9,1.8-1.3,2.8-1.3,1.1,0,2.1.3,2.9,1,.9.8,1.3,2,1.3,3.5v11.3c0,.8.2,1.4.6,1.7.3.5.9.7,1.6.7,1.6,0,2.4-.8,2.4-2.4v-11.5c0-2.8-.9-5-2.7-6.6Z"/>
        <path class="st1" d="M138.9,92c.5-.4.7-1,.7-1.8,0-2.9-.8-5.3-2.5-7.3-1.8-2.3-4.1-3.4-7-3.4-3,0-5.5,1.1-7.4,3.4-1.7,2.1-2.5,4.7-2.5,7.8,0,3.1.8,5.7,2.3,7.7,1.8,2.3,4.4,3.5,7.7,3.5,1.5,0,3.1-.3,4.8-1,1.6-.7,2.7-1.5,3.4-2.3.3-.3.5-.6.6-1,.2-.3.2-.6.2-.9,0-.6-.2-1-.6-1.4-.5-.4-1-.5-1.4-.5-.8.5-1.9,1.2-3.4,2.1-1,.5-2.2.8-3.5.8s-3-.5-4.1-1.6c-.9-1-1.4-2.2-1.4-3.5h11.8c1.3,0,2-.2,2.3-.5ZM124.8,88.8c0-1.4.4-2.6,1.2-3.4,1-1.2,2.3-1.8,4.1-1.8,1.5,0,2.7.6,3.6,1.8.8,1,1.2,2.1,1.2,3.3h-10.1Z"/>
        <path class="st1" d="M145.9,73.3c-.5-.5-1.1-.8-1.9-.8s-1.5.3-2,.9c-.5.5-.7,1.1-.7,1.8s.2,1.4.7,2c.6.5,1.2.7,2,.7s1.4-.2,1.9-.7c.5-.4.8-1.1.8-2s-.3-1.5-.8-1.9Z"/>
        <path class="st1" d="M143.9,79.5c-1.5,0-2.3.8-2.3,2.4v17.5c0,.8.2,1.4.6,1.7.4.5.9.7,1.7.7,1.5,0,2.3-.8,2.3-2.4v-17.5c0-.8-.2-1.4-.6-1.8-.4-.4-1-.7-1.7-.7Z"/>
        <path class="st1" d="M166.7,80.1c-.3-.4-.8-.6-1.4-.6s-1.2.2-1.7.6c-.5.3-.8.8-.8,1.7v-.6c-.4-.3-.9-.6-1.5-.8-1.1-.6-2.2-.9-3.3-.9-2.9,0-5.3,1.1-7.2,3.4-1.6,2.2-2.4,4.8-2.4,7.8,0,3,.8,5.5,2.4,7.7,1.9,2.3,4.3,3.5,7.2,3.5,1.1,0,2.2-.3,3.3-.9.5-.2,1-.4,1.4-.8,0,1.5-.4,2.7-1.1,3.6-.9,1.1-2.2,1.7-3.9,1.7-1.3,0-2.6-.4-3.9-1.1-1.4-.9-2.4-1.3-2.9-1.3s-1.1.2-1.5.7c-.3.5-.4,1-.4,1.4,0,1,1,2.1,2.9,3.1,1.8.9,3.7,1.3,5.6,1.3,3.1,0,5.5-.9,7.2-2.6,1.8-1.8,2.7-4.2,2.7-7.5v-17.9c0-.8-.3-1.3-.8-1.7ZM162,95.5c-.9,1.5-2.2,2.2-3.9,2.2s-3-.7-3.9-2.2c-.8-1.2-1.2-2.8-1.2-4.8,0-1.9.4-3.5,1.2-4.8.9-1.5,2.2-2.3,3.9-2.3s3,.8,3.9,2.3c.8,1.2,1.1,2.8,1.1,4.8s-.4,3.5-1.2,4.8Z"/>
        <path class="st1" d="M186.1,81.4c-1.3-1.2-3.1-1.9-5.2-1.9-1.1,0-2.2.2-3.4.7-.6.2-1.1.5-1.7,1v-25.1c0-.8-.2-1.4-.6-1.8-.5-.4-1-.6-1.7-.6-1.5,0-2.3.8-2.3,2.4v43.4c0,.8.2,1.4.6,1.7.3.5.9.7,1.7.7,1.5,0,2.3-.8,2.3-2.4v-11.3c0-1.2.5-2.2,1.4-3.2.9-.9,1.8-1.3,2.8-1.3,1.1,0,2.1.3,2.9,1,.9.8,1.3,2,1.3,3.5v11.3c0,.8.2,1.4.6,1.7.4.5.9.7,1.6.7,1.6,0,2.4-.8,2.4-2.4v-11.5c0-2.8-.9-5-2.7-6.6Z"/>
        <path class="st1" d="M198.6,79.7h-.8v-3.8c0-.7-.2-1.3-.7-1.8-.4-.5-1-.7-1.7-.7-1.5,0-2.3.8-2.3,2.5v3.8h-.8c-1.6,0-2.3.7-2.3,2.1s.8,2.1,2.3,2.1h.8v15.6c0,.8.2,1.4.7,1.7.4.5.9.7,1.6.7,1.6,0,2.4-.8,2.4-2.4v-15.6h.8c1.6,0,2.3-.7,2.3-2.1s-.8-2.1-2.3-2.1Z"/>
        <path class="st1" d="M217.5,93.1c-.3-.7-.6-1.3-1.1-1.9-.9-.8-2.4-1.6-4.6-2.5-3.2-1.1-4.8-2.2-4.8-3s.2-1.1.7-1.5c.5-.3,1.3-.5,2.3-.5s1.8.2,2.5.6c1.8,1,2.7,1.4,2.9,1.4.7,0,1.3-.2,1.6-.5.4-.4.6-.9.6-1.5,0-1.2-.9-2.3-2.7-3.1-1.6-.8-3.2-1.2-4.8-1.2-1.7,0-3.2.4-4.6,1.3-1.5.9-2.4,2.1-2.8,3.6,0,0,0,0,0,.1,0,.2-.1.3-.1.3v.8c0,1.7.7,3.1,2,4.2.4.4,2.4,1.3,6,3,2,.9,3.1,1.8,3.1,2.7,0,.6-.3,1.1-.9,1.5-.6.4-1.5.7-2.5.7-1.2,0-2.5-.4-3.7-1.1-1.5-.9-2.4-1.4-2.8-1.4s-1,.5-1.4,1.5c-.3.2-.5.4-.5.7,0,1.2.8,2.3,2.5,3.2,1.7.9,3.6,1.4,5.8,1.4s2.5-.2,3.5-.7c1.1-.3,2-.9,2.8-1.7,1.1-1.1,1.7-2.5,1.7-4.4s-.1-1.4-.4-2.1Z"/>
      </g>
      <g>
        <path class="st0" d="M15.5,25.3s-5.2,10.1,3.8,17.4l3.3,1.3s7.1-9.7-7.1-18.7Z"/>
        <path class="st0" d="M4.9,36.4s1.1,8,9.3,8.5l2.4-.6s.2-8.5-11.7-7.9Z"/>
        <path class="st0" d="M14.3,24.2l1.8.5s3.1-5.4-4.7-9.3c0,0-2.1,5.5,2.9,8.8Z"/>
        <path class="st0" d="M22.3,26.9s12.9-6.8,2.2-24.2c0,0-11.1,8.3-5.2,21.1l2.9,3.2Z"/>
        <path class="st0" d="M34.7,22.9s-10.6,4.1-8.8,15.5l1.6,3.2s11.7-2.5,7.2-18.6Z"/>
        <path class="st0" d="M36.3,34.9l.4,1.9s6.7.3,6.4-9.1c0,0-6.3.8-6.9,7.2Z"/>
        <path class="st0" d="M29.2,22.9s6.7.3,6.4-9.1c0,0-6.3.8-6.9,7.2l.4,1.9Z"/>
        <path class="st0" d="M10.1,33.4l1.9.5s3.2-5.9-5.3-9.8c0,0-2.1,6,3.4,9.4Z"/>
        <path class="st0" d="M30.8,43.5l-.2,2s6.3,2.3,9-6.7c0,0-6.2-1.2-8.8,4.7Z"/>
        <path class="st0" d="M22.9,46c-1.8.3-1.6,3.1-1.6,3.1.9,34.9-4.9,48.8-4.9,48.8-1.2,3.3.7,3.4.7,3.4,1.4.8,2.5-1.1,2.5-1.1,5.1-11.1,5.5-51.2,5.5-51.2-.4-3.2-2.2-3-2.2-3Z"/>
        <g>
          <polygon class="st0" points="69 117.4 64.4 109.6 61.7 109.6 61.7 121.2 63.8 121.2 63.8 113.1 68.7 121.2 71.2 121.2 71.2 109.6 69 109.6 69 117.4"/>
          <path class="st0" d="M80.8,118.9v-3.6c0,0,0,0,0,0,0-.4,0-.8-.3-1.3-.5-1-1.9-1.3-3-1.3s-2,0-2.7.9c-.5.6-.6,1.2-.6,1.6v.5c0,0,2.2,0,2.2,0v-.4c0-.4.2-.9,1.1-.9.4,0,.8.1,1,.3.1.2.2.4.2,1-.2,0-.4,0-.6,0-1.2,0-2.1.2-2.8.5-1.3.8-1.5,1.9-1.5,2.5,0,1.6,1.2,2.6,3,2.6s1.2,0,2-.7c0,0,0,.1,0,.2v.3c0,0,2.1,0,2.1,0v-.5c-.2-.8-.2-1.8-.2-1.8ZM77.2,119.5c-1.1,0-1.1-.7-1.1-.9,0-.7.8-1.1,2.3-1.1s.3,0,.4,0c0,.7,0,1-.3,1.4-.3.4-.7.6-1.3.6Z"/>
          <rect class="st0" x="83.6" y="109.6" width="2.5" height="2.3"/>
          <rect class="st0" x="83.7" y="112.9" width="2.2" height="8.3"/>
          <path class="st0" d="M92.6,112.9h0c-.5,0-1,.3-1.4.6v-.5s-2.3,0-2.3,0v.4c0,.5.1,1,.1,1.5v6.4s2.2,0,2.2,0v-4.4c0-1.4.4-1.9,1.6-1.9.1,0,.3,0,.4,0,0,0,.1,0,.2,0l.6.2v-2.4s-.4,0-.4,0c-.3,0-.6,0-1.1,0Z"/>
          <path class="st0" d="M99.6,112.7c-3.1,0-4.2,2.3-4.2,4.4s1.6,4.3,4.1,4.3c2.5,0,4.2-1.7,4.2-4.4s-1.1-4.3-4.1-4.3ZM101.3,117c0,2.4-1.4,2.6-1.9,2.6-1.7,0-1.8-2-1.8-2.6,0-2.4,1.6-2.5,1.9-2.5,1.1,0,1.8.9,1.8,2.4Z"/>
          <path class="st0" d="M110.4,112.7c-.8,0-1.5.2-2,.6v-3.7s-2.2,0-2.2,0v9.8s0,1.8,0,1.8h2.2s0-.5,0-.5c0,0,0,0,.1,0,.5.4,1.2.5,1.9.5,1.2,0,2.3-.5,2.9-1.4.5-.7.8-1.7.8-3s-.5-2.6-1-3.1c-.6-.7-1.5-1.1-2.7-1.1ZM110.1,114.4c1.5,0,1.7,1.6,1.7,2.5s-.2,2.5-1.8,2.5-1.7-.8-1.7-2.4c0-1.2.3-2.6,1.7-2.6Z"/>
          <rect class="st0" x="116.4" y="112.9" width="2.2" height="8.3"/>
          <rect class="st0" x="116.2" y="109.6" width="2.5" height="2.3"/>
        </g>
      </g>
    </g>
    <g>
      <path class="st2" d="M128.1,116.6c.2-.2.3-.4.5-.5.2-.1.5-.2.7-.2.5,0,.9.2,1.2.5.3.3.4.8.4,1.5v2.8h-1.3v-2.8c0-.4,0-.6-.2-.8-.1-.2-.3-.2-.6-.2s-.3,0-.5,0c-.1,0-.2.2-.3.3v3.5h-1.3v-6.8h1.3v2.7Z"/>
      <path class="st2" d="M133.2,118.3c0-.7.2-1.3.6-1.7.4-.5.9-.7,1.6-.7s1.2.2,1.6.7.6,1,.6,1.7h0c0,.8-.2,1.4-.6,1.8s-.9.7-1.6.7c-.7,0-1.2-.2-1.6-.7s-.6-1-.6-1.7h0ZM134.5,118.4c0,.4,0,.8.2,1,.2.3.4.4.7.4s.6-.1.7-.4c.2-.3.2-.6.2-1h0c0-.5,0-.9-.2-1.1-.2-.3-.4-.4-.7-.4s-.6.1-.7.4-.2.6-.2,1h0Z"/>
      <path class="st2" d="M141.5,114.8v1.2s.8,0,.8,0v.9h-.8s0,2.4,0,2.4c0,.2,0,.3.1.4,0,0,.2.1.3.1s.1,0,.2,0,.1,0,.2,0v.9s-.1,0-.3,0-.3,0-.4,0c-.4,0-.8-.1-1-.4-.2-.2-.4-.6-.4-1.1v-2.4s-.7,0-.7,0v-.9h.7s0-1.2,0-1.2h1.3Z"/>
      <path class="st2" d="M146.7,120.8c-.7,0-1.2-.2-1.6-.7-.4-.4-.6-1-.6-1.7v-.2c0-.7.2-1.3.6-1.7.4-.5.9-.7,1.6-.7s1.1.2,1.5.6.5.9.5,1.6v.7h-2.8s0,0,0,0c0,.3.1.6.3.8s.4.3.8.3.5,0,.7,0c.2,0,.4-.1.6-.3l.3.8c-.2.2-.4.3-.8.4-.3.1-.7.2-1,.2ZM146.6,116.9c-.2,0-.4,0-.6.3-.1.2-.2.4-.3.7h0s1.6,0,1.6,0h0c0-.4,0-.6-.2-.8-.1-.2-.3-.2-.6-.2Z"/>
      <path class="st2" d="M152.3,120.7h-1.3v-6.8h1.3v6.8Z"/>
      <path class="st2" d="M161.4,120.7c0-.1,0-.2-.1-.3,0-.1,0-.2,0-.4-.1.2-.3.4-.5.6-.2.2-.5.2-.8.2-.5,0-.9-.1-1.1-.4-.3-.3-.4-.6-.4-1s.2-.8.5-1.1.9-.4,1.6-.4h.7s0-.4,0-.4c0-.2,0-.4-.2-.5-.1-.1-.3-.2-.5-.2s-.4,0-.5.2-.2.2-.2.4h-1.2s0,0,0,0c0-.4.2-.7.5-1s.8-.4,1.4-.4,1,.1,1.4.4c.3.3.5.7.5,1.2v2c0,.2,0,.4,0,.6,0,.2,0,.4.2.6h-1.3ZM160.2,119.9c.2,0,.4,0,.6-.2.2-.1.3-.2.4-.4v-.7s-.7,0-.7,0c-.3,0-.5,0-.6.2-.1.1-.2.3-.2.5s0,.3.2.4.2.1.4.1Z"/>
      <path class="st2" d="M169.2,118.5c0,.7-.2,1.3-.5,1.7-.3.4-.8.6-1.4.6s-.5,0-.7-.1-.4-.2-.5-.4v2.3h-1.3v-6.5h1.1s0,.6,0,.6c.1-.2.3-.4.5-.5.2-.1.4-.2.7-.2.6,0,1,.2,1.4.7.3.5.5,1.1.5,1.8h0ZM167.9,118.4c0-.4,0-.8-.2-1.1-.1-.3-.4-.4-.7-.4s-.4,0-.5.1c-.1,0-.2.2-.3.3v2.1c0,.1.2.2.3.3.1,0,.3.1.5.1.3,0,.5-.1.7-.4s.2-.6.2-1h0Z"/>
      <path class="st2" d="M174.3,120.7c0-.1,0-.2-.1-.3,0-.1,0-.2,0-.4-.1.2-.3.4-.5.6-.2.2-.5.2-.8.2-.5,0-.9-.1-1.1-.4-.3-.3-.4-.6-.4-1s.2-.8.5-1.1.9-.4,1.6-.4h.7s0-.4,0-.4c0-.2,0-.4-.2-.5-.1-.1-.3-.2-.5-.2s-.4,0-.5.2-.2.2-.2.4h-1.2s0,0,0,0c0-.4.2-.7.5-1s.8-.4,1.4-.4,1,.1,1.4.4c.3.3.5.7.5,1.2v2c0,.2,0,.4,0,.6,0,.2,0,.4.2.6h-1.3ZM173.1,119.9c.2,0,.4,0,.6-.2.2-.1.3-.2.4-.4v-.7s-.7,0-.7,0c-.3,0-.5,0-.6.2-.1.1-.2.3-.2.5s0,.3.2.4.2.1.4.1Z"/>
      <path class="st2" d="M180.4,117.1h-.5c-.2,0-.3,0-.5.1-.1,0-.2.2-.3.3v3.2h-1.3v-4.7h1.2s0,.7,0,.7c.1-.2.3-.4.4-.6.2-.1.4-.2.6-.2s.1,0,.2,0c0,0,.1,0,.2,0v1.1Z"/>
      <path class="st2" d="M184.2,114.8v1.2s.8,0,.8,0v.9h-.8s0,2.4,0,2.4c0,.2,0,.3.1.4,0,0,.2.1.3.1s.1,0,.2,0,.1,0,.2,0v.9s-.1,0-.3,0-.3,0-.4,0c-.4,0-.8-.1-1-.4-.2-.2-.4-.6-.4-1.1v-2.4s-.7,0-.7,0v-.9h.7s0-1.2,0-1.2h1.3Z"/>
      <path class="st2" d="M188.5,116v.6c.2-.2.4-.4.6-.5.2-.1.5-.2.8-.2s.6,0,.8.2c.2.1.4.3.5.6.1-.3.3-.5.6-.6.2-.1.5-.2.8-.2.5,0,.8.2,1.1.5s.4.8.4,1.5v2.9h-1.3v-2.9c0-.4,0-.6-.2-.7s-.3-.2-.5-.2-.3,0-.5.1-.2.2-.3.3c0,0,0,.1,0,.1,0,0,0,0,0,.1v3.1h-1.3v-2.9c0-.3,0-.6-.2-.7-.1-.1-.3-.2-.5-.2s-.3,0-.5,0-.2.2-.3.3v3.5h-1.3v-4.7h1.2Z"/>
      <path class="st2" d="M198.7,120.8c-.7,0-1.2-.2-1.6-.7-.4-.4-.6-1-.6-1.7v-.2c0-.7.2-1.3.6-1.7.4-.5.9-.7,1.6-.7s1.1.2,1.5.6.5.9.5,1.6v.7h-2.8s0,0,0,0c0,.3.1.6.3.8s.4.3.8.3.5,0,.7,0c.2,0,.4-.1.6-.3l.3.8c-.2.2-.4.3-.8.4-.3.1-.7.2-1,.2ZM198.6,116.9c-.2,0-.4,0-.6.3-.1.2-.2.4-.3.7h0s1.6,0,1.6,0h0c0-.4,0-.6-.2-.8-.1-.2-.3-.2-.6-.2Z"/>
      <path class="st2" d="M204,116v.7c.2-.2.4-.4.6-.6s.5-.2.8-.2c.5,0,.8.2,1.1.5.3.3.4.8.4,1.4v3h-1.3v-3c0-.3,0-.5-.2-.7-.1-.1-.3-.2-.6-.2s-.3,0-.5.1c-.1,0-.2.2-.3.3v3.4h-1.3v-4.7h1.2Z"/>
      <path class="st2" d="M211,114.8v1.2s.8,0,.8,0v.9h-.8s0,2.4,0,2.4c0,.2,0,.3.1.4,0,0,.2.1.3.1s.1,0,.2,0,.1,0,.2,0v.9s-.1,0-.3,0-.3,0-.4,0c-.4,0-.8-.1-1-.4-.2-.2-.4-.6-.4-1.1v-2.4s-.7,0-.7,0v-.9h.7s0-1.2,0-1.2h1.3Z"/>
      <path class="st2" d="M216.7,119.4c0-.1,0-.3-.2-.4s-.4-.2-.8-.3c-.6-.1-1-.3-1.3-.5-.3-.2-.4-.5-.4-.9s.2-.8.5-1c.3-.3.8-.4,1.4-.4s1.1.1,1.4.4c.4.3.5.6.5,1.1h0s-1.2,0-1.2,0c0-.2,0-.3-.2-.5-.1-.1-.3-.2-.5-.2s-.4,0-.5.2c-.1.1-.2.2-.2.4s0,.3.2.4c.1,0,.4.2.8.2.6.1,1,.3,1.3.5.3.2.4.5.4.9s-.2.8-.5,1-.8.4-1.4.4-1.1-.2-1.5-.5c-.4-.3-.5-.7-.5-1.1h0s1.2,0,1.2,0c0,.3,0,.4.3.6.2.1.4.2.6.2s.4,0,.5-.1c.1,0,.2-.2.2-.4Z"/>
    </g>
  </g>
</svg>